<svg id="_01_logo-Black-dgrie" data-name="01 logo-Black-dgrie" xmlns="http://www.w3.org/2000/svg" width="72" height="23.369" viewBox="0 0 72 23.369">
  <g id="Group_12" data-name="Group 12" transform="translate(0 0)">
    <g id="Group_3" data-name="Group 3" transform="translate(0 0.336)">
      <g id="Group_2" data-name="Group 2">
        <path id="Path_1" data-name="Path 1" d="M6,45.1v-.086h.378A2.067,2.067,0,0,0,7.2,44.86a1.147,1.147,0,0,0,.561-.495,1.846,1.846,0,0,0,.184-.615,6.538,6.538,0,0,0,.067-1.016V33.6a3.268,3.268,0,0,0-.305-1.761,1.59,1.59,0,0,0-.584-.386,2.043,2.043,0,0,0-.747-.126H6V31.26h5.592c.763,0,1.473.031,2.11.093a10.547,10.547,0,0,1,1.68.294,6.351,6.351,0,0,1,1.338.508,5.524,5.524,0,0,1,1.083.735,5.838,5.838,0,0,1,.867.984,6.688,6.688,0,0,1,.672,1.223,7.567,7.567,0,0,1,.435,1.421,7.952,7.952,0,0,1,.152,1.575,8.05,8.05,0,0,1-.46,2.743,5.973,5.973,0,0,1-1.4,2.218,6.682,6.682,0,0,1-2.408,1.492,9.975,9.975,0,0,1-3.481.549Zm6.01-13.355A8.01,8.01,0,0,0,11,31.81a7.887,7.887,0,0,0-1.166.251l-.112.033V44.354l.124.026c.441.089.847.164,1.217.218a7.017,7.017,0,0,0,1.026.086h0a5.861,5.861,0,0,0,2.291-.433,5.305,5.305,0,0,0,1.844-1.288,6.134,6.134,0,0,0,1.22-2.049,8.491,8.491,0,0,0,.005-5.4,5.97,5.97,0,0,0-1.216-2.031,5.327,5.327,0,0,0-1.859-1.289A6.074,6.074,0,0,0,12.01,31.741Z" transform="translate(-6 -31.26)" fill="#231f20"/>
      </g>
    </g>
    <g id="Group_5" data-name="Group 5" transform="translate(17.355)">
      <g id="Group_4" data-name="Group 4">
        <path id="Path_2" data-name="Path 2" d="M291.167,40.394a9.019,9.019,0,0,1-3.241-.547,7.166,7.166,0,0,1-2.41-1.5,6.384,6.384,0,0,1-1.508-2.23,7.333,7.333,0,0,1-.518-2.77,7.466,7.466,0,0,1,.208-1.731,7.923,7.923,0,0,1,.627-1.716,8.257,8.257,0,0,1,1.041-1.559A6.93,6.93,0,0,1,286.8,27.07a7.073,7.073,0,0,1,1.827-.864,8.078,8.078,0,0,1,3.722-.178,8.574,8.574,0,0,1,1.124.306c.314.113.576.217.782.31a1.442,1.442,0,0,0,.574.153.51.51,0,0,0,.2-.049.58.58,0,0,0,.215-.195,1.165,1.165,0,0,0,.151-.319,1.966,1.966,0,0,0,.077-.345h.118l.32,4.145h-.067a7.322,7.322,0,0,0-.8-1.654,4.87,4.87,0,0,0-1.11-1.195,4.191,4.191,0,0,0-1.353-.677,5.516,5.516,0,0,0-1.54-.21,5.213,5.213,0,0,0-2.343.509,4.91,4.91,0,0,0-1.72,1.4,6.328,6.328,0,0,0-1.041,2.093,9.468,9.468,0,0,0-.36,2.587,9.223,9.223,0,0,0,.179,1.954,8.188,8.188,0,0,0,.544,1.709,6.572,6.572,0,0,0,.859,1.423,5.735,5.735,0,0,0,1.13,1.084,4.946,4.946,0,0,0,1.36.685,5.011,5.011,0,0,0,1.537.237,6.422,6.422,0,0,0,1.527-.183,5.182,5.182,0,0,0,1.478-.621l.073-.046V35.742a6.276,6.276,0,0,0-.077-1.1,1.363,1.363,0,0,0-.314-.7,1.2,1.2,0,0,0-.646-.343,4.952,4.952,0,0,0-.809-.1v-.062h5.145V33.5h-.085a1.673,1.673,0,0,0-.771.159,1.16,1.16,0,0,0-.482.475,1.652,1.652,0,0,0-.183.63,7.366,7.366,0,0,0-.054.978V39.2a8.982,8.982,0,0,1-2.291.91A10.865,10.865,0,0,1,291.167,40.394Z" transform="translate(-283.49 -25.89)" fill="#231f20"/>
      </g>
    </g>
    <g id="Group_7" data-name="Group 7" transform="translate(33.973 0.336)">
      <g id="Group_6" data-name="Group 6">
        <path id="Path_3" data-name="Path 3" d="M559.434,45.1l-4.791-6.619s-.438.022-.578.031-.256.015-.364.015-.2,0-.3,0a2.146,2.146,0,0,1-.308-.036l-.182-.034v4.287c0,.97.111,1.529.35,1.761a1.626,1.626,0,0,0,1.307.513h.4V45.1h-5.752v-.086h.378a1.537,1.537,0,0,0,1.4-.636,3.605,3.605,0,0,0,.231-1.638V33.6a3.292,3.292,0,0,0-.3-1.761,1.627,1.627,0,0,0-.585-.386,2.067,2.067,0,0,0-.75-.126h-.378V31.26h4.979c.759,0,1.419.026,1.963.076a6.361,6.361,0,0,1,1.347.25,3.926,3.926,0,0,1,.97.467,3.449,3.449,0,0,1,.774.695,3.04,3.04,0,0,1,.7,1.966,3.446,3.446,0,0,1-.2,1.184,2.826,2.826,0,0,1-.609,1,3.881,3.881,0,0,1-1.042.787,6,6,0,0,1-1.5.533l-.228.052,3.026,4.258a12.939,12.939,0,0,0,.9,1.125,4.58,4.58,0,0,0,.854.739,3.421,3.421,0,0,0,.92.422,5.863,5.863,0,0,0,.931.181v.1h-3.55ZM554.7,31.741a6.244,6.244,0,0,0-.7.049c-.276.032-.6.074-.96.131l-.131.021v6.193h.751a6.532,6.532,0,0,0,1.852-.237,3.818,3.818,0,0,0,1.325-.668,2.783,2.783,0,0,0,.8-1.034A3.169,3.169,0,0,0,557.9,34.9a3.509,3.509,0,0,0-.223-1.271,2.836,2.836,0,0,0-.647-.994,3,3,0,0,0-1.011-.649,3.724,3.724,0,0,0-1.318-.247Z" transform="translate(-549.21 -31.26)" fill="#231f20"/>
      </g>
    </g>
    <g id="Group_9" data-name="Group 9" transform="translate(50.808 0.336)">
      <g id="Group_8" data-name="Group 8">
        <path id="Path_4" data-name="Path 4" d="M818.381,45.1v-.086h.355a2.157,2.157,0,0,0,.8-.133,1.322,1.322,0,0,0,.577-.442c.118-.137.283-.473.283-1.7V33.606c0-.245-.005-.45-.007-.623s-.011-.325-.024-.45a1.8,1.8,0,0,0-.077-.346.876.876,0,0,0-.163-.269,1.443,1.443,0,0,0-.611-.432,2.093,2.093,0,0,0-.776-.153h-.355V31.27h5.738v.064h-.355a1.677,1.677,0,0,0-1.372.568,1.733,1.733,0,0,0-.221.645,6.143,6.143,0,0,0-.076,1.059v9.139a7.149,7.149,0,0,0,.064,1.089,1.707,1.707,0,0,0,.2.619.747.747,0,0,0,.235.221,1.816,1.816,0,0,0,.347.173,3.874,3.874,0,0,0,.4.12,1.9,1.9,0,0,0,.421.051h.355V45.1Z" transform="translate(-818.38 -31.27)" fill="#231f20"/>
      </g>
    </g>
    <g id="Group_11" data-name="Group 11" transform="translate(60.241 0.336)">
      <g id="Group_10" data-name="Group 10">
        <path id="Path_5" data-name="Path 5" d="M969.21,45.1v-.086h.338A2.268,2.268,0,0,0,969.8,45a2.934,2.934,0,0,0,.317-.054,2.188,2.188,0,0,0,.343-.109,1.02,1.02,0,0,0,.307-.183,1.152,1.152,0,0,0,.208-.241,1.135,1.135,0,0,0,.152-.357,3.642,3.642,0,0,0,.085-.527c.016-.2.026-.468.026-.786V33.567a6.387,6.387,0,0,0-.077-1.13,1.232,1.232,0,0,0-.234-.624,1.759,1.759,0,0,0-1.375-.479h-.338V31.27h10.6l.151,2.766h-.133c-.039-.158-.07-.313-.1-.463a4.3,4.3,0,0,0-.163-.574,2.217,2.217,0,0,0-.277-.511,1.525,1.525,0,0,0-.483-.414,2.466,2.466,0,0,0-.74-.261,5.241,5.241,0,0,0-1.081-.092h-4.077v5.89h3.273a4.64,4.64,0,0,0,1.174-.119,1.417,1.417,0,0,0,.7-.41,1.57,1.57,0,0,0,.343-.7q.079-.339.146-.794h.106v4.6h-.106a8.3,8.3,0,0,0-.153-.829,1.653,1.653,0,0,0-.345-.718,1.425,1.425,0,0,0-.7-.422,4.337,4.337,0,0,0-1.169-.126h-3.273v5.454a1.316,1.316,0,0,0,.113.56.856.856,0,0,0,.424.409,1.924,1.924,0,0,0,.816.135h2.391a9.728,9.728,0,0,0,1.028-.048,3.927,3.927,0,0,0,.819-.168,2.34,2.34,0,0,0,.671-.342,3.391,3.391,0,0,0,.567-.533,6.082,6.082,0,0,0,.552-.759q.253-.405.564-.944h.118l-1.123,3.247H969.21Z" transform="translate(-969.21 -31.27)" fill="#231f20"/>
      </g>
    </g>
  </g>
  <g id="Group_13" data-name="Group 13" transform="translate(1.359 19.187)">
    <path id="Path_6" data-name="Path 6" d="M29.6,335.805a2.1,2.1,0,0,1-.225.011,1.659,1.659,0,0,1-1.186-.433,1.5,1.5,0,0,1-.459-1.151,1.439,1.439,0,0,1,.466-1.119,1.667,1.667,0,0,1,1.166-.423,1.951,1.951,0,0,1,.834.188,1.315,1.315,0,0,1,.609.556,1.638,1.638,0,0,1,.207.815,1.607,1.607,0,0,1-.27.921,1.419,1.419,0,0,1-.782.56l-.665.367c.046,0,.086-.007.12-.007a3.521,3.521,0,0,1,1.136.223,2.548,2.548,0,0,0,.783.171q.4,0,.476-.3H31.9a.762.762,0,0,1-.256.5.821.821,0,0,1-.563.191,1.117,1.117,0,0,1-.413-.073,3.039,3.039,0,0,1-.483-.263,1.775,1.775,0,0,0-.889-.34.635.635,0,0,0-.413.169.408.408,0,0,1-.184.111c-.053,0-.08-.024-.08-.073s.032-.075.1-.114.184-.1.36-.188c.037-.018.074-.037.111-.058Zm-1.361-1.557a1.733,1.733,0,0,0,.29,1.092,1.044,1.044,0,0,0,.871.365.98.98,0,0,0,.8-.365,1.7,1.7,0,0,0,.3-1.088,1.725,1.725,0,0,0-.291-1.078,1.138,1.138,0,0,0-1.68-.009A1.713,1.713,0,0,0,28.239,334.249Z" transform="translate(-27.73 -332.689)" fill="#231f20"/>
    <path id="Path_7" data-name="Path 7" d="M84.984,333.57h1.008v.1a.543.543,0,0,0-.3.09.31.31,0,0,0-.121.173,1.961,1.961,0,0,0-.023.371v1a3.946,3.946,0,0,1-.03.572.792.792,0,0,1-.173.367.977.977,0,0,1-.4.287,1.568,1.568,0,0,1-.6.107,1.538,1.538,0,0,1-.682-.137.866.866,0,0,1-.4-.353,1.21,1.21,0,0,1-.119-.582l0-.309v-.938a3.014,3.014,0,0,0-.021-.465.206.206,0,0,0-.089-.144.691.691,0,0,0-.3-.04H82.67v-.1h1.377v.1h-.06a.737.737,0,0,0-.291.037.193.193,0,0,0-.093.137,2.834,2.834,0,0,0-.023.476v.949a3.671,3.671,0,0,0,.046.7.614.614,0,0,0,.257.362.931.931,0,0,0,.563.154,1.194,1.194,0,0,0,.5-.1.817.817,0,0,0,.336-.258.733.733,0,0,0,.134-.318,3.869,3.869,0,0,0,.024-.515v-1.031a1.5,1.5,0,0,0-.029-.358.277.277,0,0,0-.124-.163.668.668,0,0,0-.3-.073v-.1Z" transform="translate(-79.234 -333.514)" fill="#231f20"/>
    <path id="Path_8" data-name="Path 8" d="M134.633,334.855h-1.145l-.078.191a1.927,1.927,0,0,0-.173.543.241.241,0,0,0,.093.206.38.38,0,0,0,.237.07v.1h-.9v-.1a.48.48,0,0,0,.3-.141,1.728,1.728,0,0,0,.236-.463c.008-.023.043-.108.107-.258l.876-2.093h.087l1.008,2.395.138.316a.419.419,0,0,0,.126.168.462.462,0,0,0,.237.077v.1H134.6v-.1a.871.871,0,0,0,.295-.033.125.125,0,0,0,.077-.128,1.312,1.312,0,0,0-.1-.291Zm-.038-.1-.534-1.285-.532,1.285Z" transform="translate(-126.107 -332.896)" fill="#231f20"/>
    <path id="Path_9" data-name="Path 9" d="M186.565,335.689l-.023.887h-2.562v-.1h.089a.522.522,0,0,0,.268-.049.228.228,0,0,0,.1-.153,3.179,3.179,0,0,0,.021-.482v-1.479a3.015,3.015,0,0,0-.021-.465.206.206,0,0,0-.089-.144.69.69,0,0,0-.3-.04h-.067v-.1h1.448v.1h-.133a.737.737,0,0,0-.291.037.2.2,0,0,0-.093.137,2.832,2.832,0,0,0-.023.476v1.579a2.7,2.7,0,0,0,.018.409.189.189,0,0,0,.1.128.8.8,0,0,0,.339.046h.229a1.3,1.3,0,0,0,.413-.049.578.578,0,0,0,.256-.213,1.676,1.676,0,0,0,.221-.523Z" transform="translate(-174.208 -333.505)" fill="#231f20"/>
    <path id="Path_10" data-name="Path 10" d="M227.8,333.673v-.1h1.379v.1h-.064a.737.737,0,0,0-.291.037.193.193,0,0,0-.093.137,2.835,2.835,0,0,0-.023.476V335.8a3.928,3.928,0,0,0,.017.466.237.237,0,0,0,.089.163.5.5,0,0,0,.277.053h.089v.1H227.8v-.1h.089a.522.522,0,0,0,.268-.049.222.222,0,0,0,.094-.153,3.437,3.437,0,0,0,.02-.482v-1.479a3.261,3.261,0,0,0-.02-.465.2.2,0,0,0-.089-.145.7.7,0,0,0-.3-.04Z" transform="translate(-215.287 -333.514)" fill="#231f20"/>
    <path id="Path_11" data-name="Path 11" d="M253.643,334.295h-.1l.016-.725h2.926l.016.725h-.1a1.156,1.156,0,0,0-.14-.43.371.371,0,0,0-.191-.163,1.4,1.4,0,0,0-.349-.03h-.485V335.8a3.924,3.924,0,0,0,.017.465.236.236,0,0,0,.09.164.5.5,0,0,0,.276.053h.147v.1h-1.5v-.1h.156a.522.522,0,0,0,.268-.049.228.228,0,0,0,.1-.153,3.18,3.18,0,0,0,.021-.482v-2.128h-.447a1.793,1.793,0,0,0-.392.028.35.35,0,0,0-.188.168A1.211,1.211,0,0,0,253.643,334.295Z" transform="translate(-239.417 -333.514)" fill="#231f20"/>
    <path id="Path_12" data-name="Path 12" d="M304.215,335.248l.594-1a.853.853,0,0,0,.147-.347.24.24,0,0,0-.078-.171.389.389,0,0,0-.278-.078v-.1h.985v.1a.57.57,0,0,0-.33.153,2.457,2.457,0,0,0-.321.448l-.676,1.128v.4a3.038,3.038,0,0,0,.023.49.212.212,0,0,0,.1.149.7.7,0,0,0,.3.043v.1H303.4v-.1h.049a.522.522,0,0,0,.268-.049.223.223,0,0,0,.094-.153,3.44,3.44,0,0,0,.02-.482v-.371l-.752-1.234a3.083,3.083,0,0,0-.3-.446.408.408,0,0,0-.271-.077v-.1h1.223v.1q-.342,0-.343.156a.669.669,0,0,0,.113.249Z" transform="translate(-285.315 -333.496)" fill="#231f20"/>
    <path id="Path_13" data-name="Path 13" d="M371.973,334.295h-.1l.016-.725h2.926l.016.725h-.1a1.155,1.155,0,0,0-.14-.43.371.371,0,0,0-.191-.163,1.4,1.4,0,0,0-.349-.03h-.485V335.8a3.922,3.922,0,0,0,.017.465.236.236,0,0,0,.09.164.5.5,0,0,0,.276.053h.147v.1h-1.5v-.1h.156a.522.522,0,0,0,.268-.049.228.228,0,0,0,.1-.153,3.183,3.183,0,0,0,.021-.482v-2.128h-.447a1.793,1.793,0,0,0-.392.028.35.35,0,0,0-.188.168A1.224,1.224,0,0,0,371.973,334.295Z" transform="translate(-350.347 -333.514)" fill="#231f20"/>
    <path id="Path_14" data-name="Path 14" d="M416.733,334.855h-1.145l-.078.191a1.927,1.927,0,0,0-.173.543.241.241,0,0,0,.093.206.38.38,0,0,0,.237.07v.1h-.9v-.1a.48.48,0,0,0,.3-.141,1.729,1.729,0,0,0,.236-.463c.008-.023.043-.108.107-.258l.876-2.093h.087l1.008,2.395.138.316a.419.419,0,0,0,.126.168.462.462,0,0,0,.237.077v.1H416.7v-.1a.871.871,0,0,0,.295-.033.125.125,0,0,0,.077-.128,1.312,1.312,0,0,0-.1-.291Zm-.038-.1-.533-1.285-.532,1.285Z" transform="translate(-390.564 -332.896)" fill="#231f20"/>
    <path id="Path_15" data-name="Path 15" d="M465.92,333.673v-.1H467.3v.1h-.064a.738.738,0,0,0-.291.037.193.193,0,0,0-.093.137,2.835,2.835,0,0,0-.023.476V335.8a3.92,3.92,0,0,0,.017.466.237.237,0,0,0,.089.163.5.5,0,0,0,.277.053h.089v.1H465.92v-.1h.089a.522.522,0,0,0,.268-.049.223.223,0,0,0,.094-.153,3.44,3.44,0,0,0,.02-.482v-1.479a3.264,3.264,0,0,0-.02-.465.2.2,0,0,0-.089-.145.7.7,0,0,0-.3-.04Z" transform="translate(-438.515 -333.514)" fill="#231f20"/>
    <path id="Path_16" data-name="Path 16" d="M494.455,335.689l-.023.887h-2.562v-.1h.089a.522.522,0,0,0,.268-.049.228.228,0,0,0,.1-.153,3.174,3.174,0,0,0,.021-.482v-1.479a3.011,3.011,0,0,0-.021-.465.206.206,0,0,0-.089-.144.69.69,0,0,0-.3-.04h-.067v-.1h1.448v.1h-.133a.737.737,0,0,0-.291.037.2.2,0,0,0-.093.137,2.833,2.833,0,0,0-.023.476v1.579a2.705,2.705,0,0,0,.018.409.189.189,0,0,0,.1.128.8.8,0,0,0,.339.046h.229a1.3,1.3,0,0,0,.413-.049.578.578,0,0,0,.256-.213,1.676,1.676,0,0,0,.221-.523Z" transform="translate(-462.842 -333.505)" fill="#231f20"/>
    <path id="Path_17" data-name="Path 17" d="M536.15,334.223a1.438,1.438,0,0,1,.467-1.121,1.673,1.673,0,0,1,1.165-.423,1.713,1.713,0,0,1,1.178.418,1.445,1.445,0,0,1,.473,1.141,1.5,1.5,0,0,1-.453,1.134,1.836,1.836,0,0,1-2.37,0A1.5,1.5,0,0,1,536.15,334.223Zm.509.016a1.733,1.733,0,0,0,.29,1.092,1.044,1.044,0,0,0,.871.365.98.98,0,0,0,.8-.365,1.7,1.7,0,0,0,.3-1.088,1.725,1.725,0,0,0-.291-1.078,1.138,1.138,0,0,0-1.68-.009A1.717,1.717,0,0,0,536.659,334.239Z" transform="translate(-504.353 -332.68)" fill="#231f20"/>
    <path id="Path_18" data-name="Path 18" d="M597.366,335.93h-.812a3.629,3.629,0,0,1-.66-.792c-.1-.136-.193-.267-.3-.393a1.547,1.547,0,0,0-.211-.229.314.314,0,0,0-.18-.041h-.12v.669a3.925,3.925,0,0,0,.017.466.237.237,0,0,0,.089.163.5.5,0,0,0,.277.053h.145v.1H594.17v-.1h.1a.522.522,0,0,0,.268-.049.223.223,0,0,0,.094-.153,3.44,3.44,0,0,0,.02-.482v-1.479a3.264,3.264,0,0,0-.02-.465.2.2,0,0,0-.089-.144.7.7,0,0,0-.3-.04h-.051v-.1l.432-.023q.431-.02.685-.02a2.54,2.54,0,0,1,.7.08.935.935,0,0,1,.437.263.623.623,0,0,1,.167.436.675.675,0,0,1-.218.5,1.09,1.09,0,0,1-.64.26,2.436,2.436,0,0,1,.609.658,3.085,3.085,0,0,0,.538.6.815.815,0,0,0,.463.151Zm-2.279-1.557c.111,0,.226-.008.345-.013a1.289,1.289,0,0,0,.309-.049.53.53,0,0,0,.213-.117.517.517,0,0,0,.128-.2.877.877,0,0,0,.047-.307.772.772,0,0,0-.159-.509.906.906,0,0,0-.693-.191c-.055,0-.118,0-.189.009Z" transform="translate(-558.744 -332.858)" fill="#231f20"/>
    <path id="Path_19" data-name="Path 19" d="M647.3,333.673v-.1h1.379v.1h-.064a.737.737,0,0,0-.291.037.193.193,0,0,0-.093.137,2.835,2.835,0,0,0-.023.476V335.8a3.92,3.92,0,0,0,.017.466.237.237,0,0,0,.089.163.5.5,0,0,0,.277.053h.089v.1H647.3v-.1h.089a.522.522,0,0,0,.268-.049.223.223,0,0,0,.094-.153,3.44,3.44,0,0,0,.02-.482v-1.479a3.264,3.264,0,0,0-.02-.465.2.2,0,0,0-.089-.145.7.7,0,0,0-.3-.04Z" transform="translate(-608.551 -333.514)" fill="#231f20"/>
    <path id="Path_20" data-name="Path 20" d="M675.166,336.645l-2.133-2.826v2.093a1.441,1.441,0,0,0,.026.343.29.29,0,0,0,.146.151.739.739,0,0,0,.36.069v.1H672.44v-.1a.819.819,0,0,0,.329-.079.252.252,0,0,0,.134-.137,1.644,1.644,0,0,0,.021-.347v-1.6a2.1,2.1,0,0,0-.033-.465.218.218,0,0,0-.1-.151.894.894,0,0,0-.313-.033v-.1h.889l1.786,2.36v-1.8a.669.669,0,0,0-.041-.28.291.291,0,0,0-.168-.127.881.881,0,0,0-.3-.047v-.1h1.094v.1a.811.811,0,0,0-.3.073.276.276,0,0,0-.14.139.88.88,0,0,0-.03.275v2.5h-.094Z" transform="translate(-632.119 -333.505)" fill="#231f20"/>
    <path id="Path_21" data-name="Path 21" d="M731.408,334.473h1.3v.107a.67.67,0,0,0-.293.043.213.213,0,0,0-.1.145,2.854,2.854,0,0,0-.024.49v.32a.624.624,0,0,0-.1-.009,1.357,1.357,0,0,0-.449.1,2,2,0,0,1-.7.143,1.462,1.462,0,0,1-1.505-1.505,1.709,1.709,0,0,1,.409-1.134,1.377,1.377,0,0,1,1.112-.487,1.282,1.282,0,0,1,1,.445,1.057,1.057,0,0,0,.093-.336h.107v1.008h-.107a1.2,1.2,0,0,0-.353-.736.984.984,0,0,0-.7-.271,1.012,1.012,0,0,0-.74.316,1.567,1.567,0,0,0-.316,1.121,1.681,1.681,0,0,0,.3,1.138.981.981,0,0,0,.756.335.922.922,0,0,0,.42-.094.548.548,0,0,0,.258-.23.758.758,0,0,0,.069-.343,1.024,1.024,0,0,0-.033-.323.181.181,0,0,0-.1-.109.718.718,0,0,0-.245-.027h-.071v-.108Z" transform="translate(-685.647 -332.689)" fill="#231f20"/>
    <path id="Path_22" data-name="Path 22" d="M804.534,333.551l.024.752h-.1a.932.932,0,0,0-.139-.408.48.48,0,0,0-.226-.2,1.372,1.372,0,0,0-.4-.04H803.1v1.278h.283a.515.515,0,0,0,.363-.093.546.546,0,0,0,.09-.37h.111v1.063h-.111a.977.977,0,0,0-.039-.306.26.26,0,0,0-.116-.153.718.718,0,0,0-.3-.041H803.1v.749a3.742,3.742,0,0,0,.018.466.241.241,0,0,0,.09.163.506.506,0,0,0,.279.053h.1v.1h-1.4v-.1h.093a.522.522,0,0,0,.268-.049.228.228,0,0,0,.1-.153,3.171,3.171,0,0,0,.021-.482V334.3a3.009,3.009,0,0,0-.021-.465.206.206,0,0,0-.089-.144.691.691,0,0,0-.3-.04h-.053v-.1h2.326Z" transform="translate(-753.754 -333.496)" fill="#231f20"/>
    <path id="Path_23" data-name="Path 23" d="M844.1,334.223a1.438,1.438,0,0,1,.467-1.121,1.673,1.673,0,0,1,1.165-.423,1.713,1.713,0,0,1,1.178.418,1.445,1.445,0,0,1,.473,1.141,1.5,1.5,0,0,1-.453,1.134,1.836,1.836,0,0,1-2.37,0A1.507,1.507,0,0,1,844.1,334.223Zm.51.016a1.733,1.733,0,0,0,.29,1.092,1.044,1.044,0,0,0,.871.365.98.98,0,0,0,.8-.365,1.7,1.7,0,0,0,.3-1.088,1.724,1.724,0,0,0-.291-1.078,1.138,1.138,0,0,0-1.68-.009A1.713,1.713,0,0,0,844.61,334.239Z" transform="translate(-793.043 -332.68)" fill="#231f20"/>
    <path id="Path_24" data-name="Path 24" d="M905.326,335.93h-.812a3.627,3.627,0,0,1-.66-.792c-.1-.136-.193-.267-.3-.393a1.55,1.55,0,0,0-.211-.229.314.314,0,0,0-.18-.041h-.12v.669a3.925,3.925,0,0,0,.017.466.237.237,0,0,0,.089.163.5.5,0,0,0,.277.053h.144v.1H902.13v-.1h.1a.522.522,0,0,0,.268-.049.223.223,0,0,0,.094-.153,3.454,3.454,0,0,0,.02-.482v-1.479a3.277,3.277,0,0,0-.02-.465.2.2,0,0,0-.089-.144.7.7,0,0,0-.3-.04h-.051v-.1l.432-.023q.431-.02.685-.02a2.541,2.541,0,0,1,.7.08.936.936,0,0,1,.437.263.623.623,0,0,1,.167.436.675.675,0,0,1-.218.5,1.09,1.09,0,0,1-.64.26,2.437,2.437,0,0,1,.609.658,3.085,3.085,0,0,0,.538.6.815.815,0,0,0,.463.151Zm-2.28-1.557c.111,0,.226-.008.345-.013a1.288,1.288,0,0,0,.309-.049.53.53,0,0,0,.213-.117.516.516,0,0,0,.128-.2.877.877,0,0,0,.047-.307.772.772,0,0,0-.159-.509.906.906,0,0,0-.693-.191c-.055,0-.118,0-.189.009Z" transform="translate(-847.443 -332.858)" fill="#231f20"/>
    <path id="Path_25" data-name="Path 25" d="M975.023,336.075l1.1-2.495h.925v.1h-.111a.736.736,0,0,0-.291.037.2.2,0,0,0-.093.137,2.833,2.833,0,0,0-.023.476v1.479a3.754,3.754,0,0,0,.018.466.241.241,0,0,0,.09.163.5.5,0,0,0,.277.053h.133v.1H975.6v-.1h.107a.518.518,0,0,0,.266-.049.228.228,0,0,0,.1-.153,3.26,3.26,0,0,0,.021-.482v-1.919l-1.194,2.7h-.1l-1.2-2.7v1.766a3.5,3.5,0,0,0,.023.493.386.386,0,0,0,.138.23.54.54,0,0,0,.325.113v.1H973v-.1a.55.55,0,0,0,.315-.106.381.381,0,0,0,.148-.232,3.237,3.237,0,0,0,.027-.512v-1.312a3.02,3.02,0,0,0-.021-.465.206.206,0,0,0-.089-.144.691.691,0,0,0-.3-.04H973v-.1h.919Z" transform="translate(-913.881 -333.524)" fill="#231f20"/>
    <path id="Path_26" data-name="Path 26" d="M1043.865,335.628h.107l-.064.938h-2.5v-.1h.063a.468.468,0,0,0,.29-.06.269.269,0,0,0,.083-.153,3.574,3.574,0,0,0,.017-.47V334.3a3.386,3.386,0,0,0-.019-.453.213.213,0,0,0-.087-.153.612.612,0,0,0-.286-.043v-.1h2.155l.071.752h-.1a1.173,1.173,0,0,0-.175-.448.441.441,0,0,0-.246-.167,2.145,2.145,0,0,0-.458-.034h-.418v1.265h.32a.87.87,0,0,0,.308-.038.2.2,0,0,0,.115-.114,1.032,1.032,0,0,0,.028-.3h.1V335.5h-.1a.881.881,0,0,0-.042-.337.206.206,0,0,0-.123-.111,1.03,1.03,0,0,0-.275-.026h-.332v.714a1.552,1.552,0,0,0,.069.63q.068.095.371.094h.224a1.07,1.07,0,0,0,.391-.061.7.7,0,0,0,.293-.251A1.44,1.44,0,0,0,1043.865,335.628Z" transform="translate(-978.013 -333.496)" fill="#231f20"/>
    <path id="Path_27" data-name="Path 27" d="M1088.586,336.645l-2.133-2.826v2.093a1.427,1.427,0,0,0,.026.343.29.29,0,0,0,.146.151.739.739,0,0,0,.36.069v.1h-1.125v-.1a.818.818,0,0,0,.329-.079.252.252,0,0,0,.134-.137,1.634,1.634,0,0,0,.021-.347v-1.6a2.1,2.1,0,0,0-.033-.465.217.217,0,0,0-.1-.151.893.893,0,0,0-.313-.033v-.1h.889l1.785,2.36v-1.8a.672.672,0,0,0-.041-.28.291.291,0,0,0-.168-.127.881.881,0,0,0-.3-.047v-.1h1.094v.1a.809.809,0,0,0-.3.073.275.275,0,0,0-.14.139.875.875,0,0,0-.03.275v2.5h-.094Z" transform="translate(-1019.683 -333.505)" fill="#231f20"/>
  </g>
</svg>
