<svg xmlns="http://www.w3.org/2000/svg" width="22.199" height="19.2" viewBox="0 0 22.199 19.2">
  <path id="heart" d="M10.5,18a.7.7,0,0,1-.516-.211L2.672,10.734a3.882,3.882,0,0,1-.322-.3q-.2-.211-.65-.768A10.349,10.349,0,0,1,.9,8.519,7.122,7.122,0,0,1,.275,7.1,5.114,5.114,0,0,1,0,5.484,5.375,5.375,0,0,1,1.488,1.453,5.637,5.637,0,0,1,5.6,0,4.667,4.667,0,0,1,7.084.252,6.019,6.019,0,0,1,8.49.932q.651.428,1.119.8a11.042,11.042,0,0,1,.891.8,10.783,10.783,0,0,1,.891-.8q.469-.375,1.119-.8a6,6,0,0,1,1.406-.68A4.669,4.669,0,0,1,15.4,0a5.636,5.636,0,0,1,4.113,1.453A5.375,5.375,0,0,1,21,5.484q0,2.59-2.683,5.273l-7.3,7.031A.7.7,0,0,1,10.5,18Z" transform="translate(0.6 0.6)" fill="none" stroke="#000" stroke-width="1.2"/>
</svg>
