<svg xmlns="http://www.w3.org/2000/svg" width="20.906" height="18.603" viewBox="0 0 20.906 18.603">
  <g id="User-3" transform="translate(0.6 0.603)">
    <path id="Path_32" data-name="Path 32" d="M156.993,28.461h0c-.067-.067-.21,0-.276.143a7.4,7.4,0,0,0,.066-2.9c-.618-2.285-5.885-2.914-5.885-1.524-2.291.685-1.872,2.76-1.524,4.428,0,0-.144-.21-.419,0-.21.276.072.894.143,1.17a1.632,1.632,0,0,0,.2.486v.077c0,.276.077.408.209.408h0c.552,2.009,2.153,3.665,3.533,3.665,1.319,0,2.915-1.656,3.467-3.665.072,0,.21-.132.21-.408h0a3.255,3.255,0,0,0,.209-.563c.067-.276.343-1.1.067-1.313Z" transform="translate(-143.215 -23.443)" fill="none" stroke="#000" stroke-linejoin="round" stroke-miterlimit="10" stroke-width="1.2" fill-rule="evenodd"/>
    <path id="Path_33" data-name="Path 33" d="M40.366,331.486c0-5.675-2.407-4.361-7.053-6.646h0a4.47,4.47,0,0,1-2.783,1.1H30.5a4.47,4.47,0,0,1-2.783-1.1h0c-4.647,2.285-7.053.972-7.053,6.646" transform="translate(-20.66 -313.486)" fill="none" stroke="#000" stroke-linejoin="round" stroke-miterlimit="10" stroke-width="1.2" fill-rule="evenodd"/>
  </g>
</svg>
